# xmcd
#
# Track frame offsets:
#	150
#	21587
#	34780
#	61998
#	80139
#	110669
#	130633
#	146170
#	161380
#	186398
#	200843
#	233289
#	250280
#
# Disc length: 3515 seconds
#
# Revision: 0
# Processed by: cddbd v1.5.2PL0 Copyright (c) Steve Scherf et al.
# Submitted via: EasyCDDAExtractor 10.0.5.1
#
DISCID=ba0db90d
DTITLE=Jaemus Downing - Jaemus Downing Plays Jaemus Downing
DYEAR=1900
DGENRE=
TTITLE0=Susannah's Variation
TTITLE1=Rag For Ste
TTITLE2=Caroline
TTITLE3=Hobo Blues
TTITLE4=Around And A Bit
TTITLE5=Piece In Our Time
TTITLE6=Variation On 'Around And A Bit'
TTITLE7=The End Of The First Half Rag
TTITLE8=Variation On 'Hobo Blues'
TTITLE9=My Baby's Door
TTITLE10=Balladette In Blue
TTITLE11=Chillaton Chutney
TTITLE12=The Duke Of Cornwall's Rag
EXTD=
EXTT0=
EXTT1=
EXTT2=
EXTT3=
EXTT4=
EXTT5=
EXTT6=
EXTT7=
EXTT8=
EXTT9=
EXTT10=
EXTT11=
EXTT12=
PLAYORDER=
